<svg width="98" height="98" viewBox="0 0 98 98" fill="none" xmlns="http://www.w3.org/2000/svg">
<path d="M17.7964 78.4873C22.3663 75.1993 27.2153 72.599 32.3436 70.6863C37.4718 68.7736 43.0239 67.8172 48.9999 67.8172C54.9759 67.8172 60.528 68.7736 65.6562 70.6863C70.7844 72.599 75.6335 75.1993 80.2034 78.4873C83.7531 74.8134 86.6085 70.4744 88.7694 65.4702C90.9302 60.4661 92.0106 54.976 92.0106 49C92.0106 37.0825 87.8216 26.9346 79.4434 18.5565C71.0653 10.1783 60.9175 5.98926 48.9999 5.98926C37.0823 5.98926 26.9345 10.1783 18.5563 18.5565C10.1782 26.9346 5.98914 37.0825 5.98914 49C5.98914 54.976 7.06956 60.4661 9.2304 65.4702C11.3913 70.4744 14.2467 74.8134 17.7964 78.4873ZM49.003 51.6882C44.4723 51.6882 40.651 50.1332 37.539 47.0233C34.4269 43.9132 32.8709 40.0929 32.8709 35.5622C32.8709 31.0316 34.4258 27.2103 37.5358 24.0983C40.6458 20.9862 44.4662 19.4301 48.9968 19.4301C53.5274 19.4301 57.3488 20.9851 60.4608 24.0952C63.5729 27.2051 65.1289 31.0254 65.1289 35.5561C65.1289 40.0867 63.5739 43.908 60.4639 47.02C57.3539 50.1321 53.5336 51.6882 49.003 51.6882ZM48.9999 97.3871C42.2519 97.3871 35.9347 96.1309 30.0483 93.6186C24.1619 91.1061 19.0406 87.6718 14.6843 83.3156C10.3281 78.9593 6.8938 73.838 4.38134 67.9516C1.86898 62.0652 0.612793 55.748 0.612793 49C0.612793 42.252 1.86898 35.9348 4.38134 30.0484C6.8938 24.162 10.3281 19.0407 14.6843 14.6844C19.0406 10.3282 24.1619 6.89392 30.0483 4.38147C35.9347 1.8691 42.2519 0.612915 48.9999 0.612915C55.7479 0.612915 62.0651 1.8691 67.9515 4.38147C73.8379 6.89392 78.9592 10.3282 83.3155 14.6844C87.6717 19.0407 91.106 24.162 93.6184 30.0484C96.1308 35.9348 97.387 42.252 97.387 49C97.387 55.748 96.1308 62.0652 93.6184 67.9516C91.106 73.838 87.6717 78.9593 83.3155 83.3156C78.9592 87.6718 73.8379 91.1061 67.9515 93.6186C62.0651 96.1309 55.7479 97.3871 48.9999 97.3871ZM48.9999 92.0108C53.9558 92.0108 58.8324 91.144 63.6297 89.4105C68.4271 87.677 72.5732 85.3041 76.0678 82.292C72.5732 79.4867 68.5305 77.2689 63.9399 75.6387C59.3494 74.0086 54.3693 73.1936 48.9999 73.1936C43.6304 73.1936 38.6332 73.9914 34.0082 75.5871C29.3831 77.1827 25.3577 79.4177 21.932 82.292C25.4266 85.3041 29.5727 87.677 34.3701 89.4105C39.1674 91.144 44.044 92.0108 48.9999 92.0108ZM48.9999 46.3118C52.0189 46.3118 54.5658 45.2745 56.6405 43.1997C58.7152 41.125 59.7526 38.5782 59.7526 35.5592C59.7526 32.5402 58.7152 29.9933 56.6405 27.9186C54.5658 25.8438 52.0189 24.8065 48.9999 24.8065C45.9809 24.8065 43.434 25.8438 41.3593 27.9186C39.2846 29.9933 38.2472 32.5402 38.2472 35.5592C38.2472 38.5782 39.2846 41.125 41.3593 43.1997C43.434 45.2745 45.9809 46.3118 48.9999 46.3118Z" fill="black"/>
</svg>
