<svg width="918" height="379" viewBox="0 0 918 379" fill="none" xmlns="http://www.w3.org/2000/svg">
<rect y="257" width="5" height="31" fill="#0FEDBE"/>
<line x1="2.5" y1="330" x2="2.5" y2="246" stroke="#0FEDBE"/>
<rect x="6.20605" y="249" width="5" height="17" fill="#0FEDBE"/>
<line x1="8.70605" y1="291" x2="8.70605" y2="246" stroke="#0FEDBE"/>
<rect x="12.4121" y="262" width="5" height="3" fill="#0FEDBE"/>
<line x1="14.9121" y1="288" x2="14.9121" y2="243" stroke="#0FEDBE"/>
<rect x="18.6182" y="266" width="5" height="9" fill="#F73C6B"/>
<line x1="21.1182" y1="279" x2="21.1182" y2="246" stroke="#F73C6B"/>
<rect x="24.8242" y="266" width="5" height="25" fill="#F73C6B"/>
<line x1="27.3242" y1="293" x2="27.3242" y2="246" stroke="#F73C6B"/>
<rect x="31.0303" y="283" width="5" height="9" fill="#F73C6B"/>
<line x1="33.5303" y1="296" x2="33.5303" y2="263" stroke="#F73C6B"/>
<rect x="37.2363" y="247" width="5" height="57" fill="#0FEDBE"/>
<line x1="39.7363" y1="307.045" x2="39.7363" y2="296" stroke="#0FEDBE"/>
<rect x="43.4424" y="241" width="5" height="9" fill="#0FEDBE"/>
<line x1="45.9424" y1="283" x2="45.9424" y2="239" stroke="#0FEDBE"/>
<rect x="49.6487" y="246" width="5" height="4" fill="#0FEDBE"/>
<line x1="52.1487" y1="273" x2="52.1487" y2="241" stroke="#0FEDBE"/>
<rect x="55.8547" y="248" width="5" height="2" fill="#F73C6B"/>
<line x1="58.3547" y1="259" x2="58.3547" y2="239" stroke="#F73C6B"/>
<rect x="62.0608" y="273" width="5" height="26" fill="#F73C6B"/>
<line x1="64.5608" y1="299" x2="64.5608" y2="269" stroke="#F73C6B"/>
<rect x="68.2668" y="281" width="5" height="31" fill="#F73C6B"/>
<line x1="70.7668" y1="323" x2="70.7668" y2="272" stroke="#F73C6B"/>
<rect x="74.4729" y="314" width="5" height="3" fill="#F73C6B"/>
<line x1="76.9729" y1="355" x2="76.9729" y2="310" stroke="#F73C6B"/>
<rect x="80.679" y="310" width="5" height="7" fill="#F73C6B"/>
<line x1="83.179" y1="339" x2="83.179" y2="310" stroke="#F73C6B"/>
<rect x="86.8853" y="312" width="5" height="4" fill="#F73C6B"/>
<line x1="89.3853" y1="323" x2="89.3853" y2="309" stroke="#F73C6B"/>
<rect x="93.0913" y="308" width="5" height="4" fill="#0FEDBE"/>
<line x1="95.5913" y1="319" x2="95.5913" y2="305" stroke="#0FEDBE"/>
<rect x="99.2974" y="308" width="5" height="4" fill="#F73C6B"/>
<line x1="101.797" y1="318" x2="101.797" y2="289" stroke="#F73C6B"/>
<rect x="105.503" y="285" width="5" height="35" fill="#0FEDBE"/>
<line x1="108.003" y1="361" x2="108.003" y2="279" stroke="#0FEDBE"/>
<rect x="111.709" y="282" width="5" height="9" fill="#0FEDBE"/>
<line x1="114.209" y1="295" x2="114.209" y2="262" stroke="#0FEDBE"/>
<rect x="117.916" y="282" width="5" height="9" fill="#F73C6B"/>
<line x1="120.416" y1="295" x2="120.416" y2="275" stroke="#F73C6B"/>
<rect x="124.122" y="283" width="5" height="3" fill="#F73C6B"/>
<line x1="126.622" y1="305" x2="126.622" y2="279" stroke="#F73C6B"/>
<rect x="130.328" y="282" width="5" height="26" fill="#F73C6B"/>
<line x1="132.828" y1="295" x2="132.828" y2="262" stroke="#F73C6B"/>
<rect x="136.534" y="282" width="5" height="57" fill="#F73C6B"/>
<line x1="139.034" y1="295" x2="139.034" y2="262" stroke="#F73C6B"/>
<rect x="142.74" y="337" width="5" height="4" fill="#F73C6B"/>
<line x1="145.24" y1="348" x2="145.24" y2="333" stroke="#F73C6B"/>
<rect x="148.946" y="333" width="5" height="6" fill="#F73C6B"/>
<line x1="151.446" y1="346" x2="151.446" y2="331" stroke="#F73C6B"/>
<rect x="155.152" y="332" width="5" height="4" fill="#F73C6B"/>
<line x1="157.652" y1="341" x2="157.652" y2="313" stroke="#F73C6B"/>
<rect x="161.358" y="328" width="5" height="26" fill="#F73C6B"/>
<line x1="163.858" y1="354" x2="163.858" y2="324" stroke="#F73C6B"/>
<rect x="167.564" y="321" width="5" height="31" fill="#0FEDBE"/>
<line x1="170.064" y1="363" x2="170.064" y2="313" stroke="#0FEDBE"/>
<rect x="173.77" y="317" width="5" height="6" fill="#0FEDBE"/>
<line x1="176.27" y1="330" x2="176.27" y2="316" stroke="#0FEDBE"/>
<rect x="179.977" y="297" width="5" height="31" fill="#0FEDBE"/>
<line x1="182.477" y1="332" x2="182.477" y2="278" stroke="#0FEDBE"/>
<rect x="186.183" y="290" width="5" height="9" fill="#F73C6B"/>
<line x1="188.683" y1="303" x2="188.683" y2="283" stroke="#F73C6B"/>
<rect width="5" height="6" transform="matrix(1 0 0 -1 192.389 294)" fill="#0FEDBE"/>
<line y1="-0.5" x2="9" y2="-0.5" transform="matrix(4.37115e-08 1 1 -4.37115e-08 195.389 281)" stroke="#0FEDBE"/>
<rect x="198.595" y="282" width="5" height="9" fill="#0FEDBE"/>
<line x1="201.095" y1="295" x2="201.095" y2="262" stroke="#0FEDBE"/>
<rect x="204.801" y="282" width="5" height="3" fill="#F73C6B"/>
<line x1="207.301" y1="323" x2="207.301" y2="278" stroke="#F73C6B"/>
<rect x="211.007" y="284" width="5" height="4" fill="#F73C6B"/>
<line x1="213.507" y1="295" x2="213.507" y2="281" stroke="#F73C6B"/>
<rect width="5" height="6" transform="matrix(1 0 0 -1 217.213 294)" fill="#0FEDBE"/>
<line x1="219.713" y1="296" x2="219.713" y2="281" stroke="#0FEDBE"/>
<rect x="223.419" y="271" width="5" height="33" fill="#0FEDBE"/>
<line x1="225.919" y1="307.045" x2="225.919" y2="296" stroke="#0FEDBE"/>
<rect x="229.625" y="271" width="5" height="8" fill="#0FEDBE"/>
<line x1="232.125" y1="307" x2="232.125" y2="278" stroke="#0FEDBE"/>
<rect x="235.831" y="269" width="5" height="9" fill="#0FEDBE"/>
<line x1="238.331" y1="282" x2="238.331" y2="249" stroke="#0FEDBE"/>
<rect x="242.037" y="262" width="5" height="3" fill="#0FEDBE"/>
<line x1="244.537" y1="288" x2="244.537" y2="243" stroke="#0FEDBE"/>
<rect x="248.243" y="209" width="5" height="31" fill="#0FEDBE"/>
<line x1="250.743" y1="209.045" x2="250.743" y2="198" stroke="#0FEDBE"/>
<line x1="250.743" y1="293" x2="250.743" y2="240" stroke="#0FEDBE"/>
<rect x="254.449" y="193" width="5" height="31" fill="#0FEDBE"/>
<line x1="256.949" y1="232" x2="256.949" y2="182" stroke="#0FEDBE"/>
<rect x="260.656" y="189" width="5" height="9" fill="#0FEDBE"/>
<line x1="263.156" y1="202" x2="263.156" y2="169" stroke="#0FEDBE"/>
<rect x="266.862" y="189" width="5" height="4" fill="#0FEDBE"/>
<line x1="269.362" y1="202" x2="269.362" y2="169" stroke="#0FEDBE"/>
<rect x="273.068" y="190" width="5" height="3" fill="#F73C6B"/>
<line x1="275.568" y1="212" x2="275.568" y2="186" stroke="#F73C6B"/>
<rect x="279.274" y="191" width="5" height="4" fill="#F73C6B"/>
<line x1="281.774" y1="202" x2="281.774" y2="189" stroke="#F73C6B"/>
<rect x="285.48" y="242" width="5" height="26" fill="#F73C6B"/>
<line x1="287.98" y1="255" x2="287.98" y2="222" stroke="#F73C6B"/>
<rect x="291.686" y="253" width="5" height="9" fill="#0FEDBE"/>
<line x1="294.186" y1="282" x2="294.186" y2="249" stroke="#0FEDBE"/>
<rect x="297.892" y="250" width="5" height="3" fill="#0FEDBE"/>
<line x1="300.392" y1="276" x2="300.392" y2="231" stroke="#0FEDBE"/>
<rect x="304.098" y="222" width="5" height="42" fill="#F73C6B"/>
<line x1="306.598" y1="233.045" x2="306.598" y2="222" stroke="#F73C6B"/>
<line x1="306.598" y1="275.045" x2="306.598" y2="264" stroke="#F73C6B"/>
<rect x="310.304" y="249" width="5" height="14" fill="#F73C6B"/>
<line x1="312.804" y1="274" x2="312.804" y2="241" stroke="#F73C6B"/>
<rect x="316.51" y="257" width="5" height="31" fill="#F73C6B"/>
<line x1="319.01" y1="299" x2="319.01" y2="250" stroke="#F73C6B"/>
<rect x="322.716" y="271" width="5" height="8" fill="#F73C6B"/>
<line x1="325.216" y1="307" x2="325.216" y2="278" stroke="#F73C6B"/>
<rect x="328.922" y="290" width="5" height="9" fill="#F73C6B"/>
<line x1="331.422" y1="303" x2="331.422" y2="283" stroke="#F73C6B"/>
<rect x="335.129" y="271" width="5" height="33" fill="#0FEDBE"/>
<line x1="337.629" y1="322" x2="337.629" y2="296" stroke="#0FEDBE"/>
<rect x="341.335" y="242" width="5" height="62" fill="#0FEDBE"/>
<line x1="343.835" y1="307" x2="343.835" y2="296" stroke="#0FEDBE"/>
<rect x="347.541" y="226" width="5" height="26" fill="#F73C6B"/>
<line x1="350.041" y1="239" x2="350.041" y2="206" stroke="#F73C6B"/>
<rect x="353.747" y="207" width="5" height="31" fill="#0FEDBE"/>
<line x1="356.247" y1="249" x2="356.247" y2="199" stroke="#0FEDBE"/>
<rect x="359.953" y="206" width="5" height="31" fill="#0FEDBE"/>
<line x1="362.453" y1="290" x2="362.453" y2="197" stroke="#0FEDBE"/>
<rect x="366.159" y="205" width="5" height="9" fill="#0FEDBE"/>
<line x1="368.659" y1="218" x2="368.659" y2="185" stroke="#0FEDBE"/>
<rect x="372.365" y="158" width="5" height="42" fill="#0FEDBE"/>
<line x1="374.865" y1="169.045" x2="374.865" y2="158" stroke="#0FEDBE"/>
<line x1="374.865" y1="211.045" x2="374.865" y2="200" stroke="#0FEDBE"/>
<rect x="378.571" y="150" width="5" height="11" fill="#0FEDBE"/>
<line x1="381.071" y1="184" x2="381.071" y2="139" stroke="#0FEDBE"/>
<rect x="384.777" y="146" width="5" height="9" fill="#F73C6B"/>
<line x1="387.277" y1="159" x2="387.277" y2="139" stroke="#F73C6B"/>
<rect x="390.983" y="146" width="5" height="26" fill="#F73C6B"/>
<line x1="393.483" y1="159" x2="393.483" y2="126" stroke="#F73C6B"/>
<rect x="397.189" y="147" width="5" height="3" fill="#F73C6B"/>
<line x1="399.689" y1="169" x2="399.689" y2="143" stroke="#F73C6B"/>
<rect x="403.396" y="145" width="5" height="9" fill="#0FEDBE"/>
<line x1="405.896" y1="158" x2="405.896" y2="125" stroke="#0FEDBE"/>
<rect x="409.602" y="151" width="5" height="26" fill="#F73C6B"/>
<line x1="412.102" y1="164" x2="412.102" y2="131" stroke="#F73C6B"/>
<rect x="415.808" y="151" width="5" height="40" fill="#F73C6B"/>
<line x1="418.308" y1="164" x2="418.308" y2="131" stroke="#F73C6B"/>
<rect x="422.014" y="191" width="5" height="4" fill="#F73C6B"/>
<line x1="424.514" y1="202" x2="424.514" y2="189" stroke="#F73C6B"/>
<rect x="428.22" y="190" width="5" height="11" fill="#0FEDBE"/>
<line x1="430.72" y1="224" x2="430.72" y2="179" stroke="#0FEDBE"/>
<rect x="434.426" y="222" width="5" height="42" fill="#F73C6B"/>
<line x1="436.926" y1="233.045" x2="436.926" y2="222" stroke="#F73C6B"/>
<line x1="436.926" y1="275.045" x2="436.926" y2="264" stroke="#F73C6B"/>
<rect x="440.632" y="249" width="5" height="14" fill="#F73C6B"/>
<line x1="443.132" y1="274" x2="443.132" y2="241" stroke="#F73C6B"/>
<rect x="446.838" y="257" width="5" height="31" fill="#F73C6B"/>
<line x1="449.338" y1="299" x2="449.338" y2="250" stroke="#F73C6B"/>
<rect x="453.044" y="271" width="5" height="8" fill="#F73C6B"/>
<line x1="455.544" y1="307" x2="455.544" y2="278" stroke="#F73C6B"/>
<rect x="459.25" y="290" width="5" height="9" fill="#F73C6B"/>
<line x1="461.75" y1="303" x2="461.75" y2="283" stroke="#F73C6B"/>
<rect x="465.456" y="290" width="5" height="9" fill="#0FEDBE"/>
<line x1="467.956" y1="299" x2="467.956" y2="283" stroke="#0FEDBE"/>
<rect x="471.662" y="282" width="5" height="13" fill="#0FEDBE"/>
<line x1="474.162" y1="295" x2="474.162" y2="279" stroke="#0FEDBE"/>
<rect x="477.869" y="283" width="5" height="3" fill="#F73C6B"/>
<line x1="480.369" y1="296" x2="480.369" y2="276" stroke="#F73C6B"/>
<rect x="484.075" y="281" width="5" height="12" fill="#0FEDBE"/>
<line x1="486.575" y1="299" x2="486.575" y2="243" stroke="#0FEDBE"/>
<rect x="490.281" y="291" width="5" height="3" fill="#0FEDBE"/>
<line x1="492.781" y1="295" x2="492.781" y2="231" stroke="#0FEDBE"/>
<rect x="496.487" y="206" width="5" height="31" fill="#0FEDBE"/>
<line x1="498.987" y1="290" x2="498.987" y2="197" stroke="#0FEDBE"/>
<rect x="502.693" y="201" width="5" height="14" fill="#F73C6B"/>
<line x1="505.193" y1="226" x2="505.193" y2="193" stroke="#F73C6B"/>
<rect x="508.899" y="207" width="5" height="40" fill="#F73C6B"/>
<line x1="511.399" y1="220" x2="511.399" y2="187" stroke="#F73C6B"/>
<rect x="515.105" y="247" width="5" height="4" fill="#F73C6B"/>
<line x1="517.605" y1="258" x2="517.605" y2="245" stroke="#F73C6B"/>
<rect x="521.311" y="251" width="5" height="3" fill="#0FEDBE"/>
<line x1="523.811" y1="255" x2="523.811" y2="191" stroke="#0FEDBE"/>
<rect x="527.517" y="218" width="5" height="62" fill="#0FEDBE"/>
<line x1="530.017" y1="283" x2="530.017" y2="272" stroke="#0FEDBE"/>
<rect x="533.723" y="218" width="5" height="13" fill="#0FEDBE"/>
<line x1="536.223" y1="283" x2="536.223" y2="225" stroke="#0FEDBE"/>
<rect x="539.929" y="207" width="5" height="31" fill="#F73C6B"/>
<line x1="542.429" y1="249" x2="542.429" y2="199" stroke="#F73C6B"/>
<rect x="546.135" y="237" width="5" height="3" fill="#F73C6B"/>
<line x1="548.635" y1="250" x2="548.635" y2="230" stroke="#F73C6B"/>
<rect x="552.341" y="238" width="5" height="51" fill="#F73C6B"/>
<line x1="554.841" y1="249.045" x2="554.841" y2="238" stroke="#F73C6B"/>
<line x1="554.841" y1="291.045" x2="554.841" y2="280" stroke="#F73C6B"/>
<rect x="558.547" y="266" width="5" height="26" fill="#F73C6B"/>
<line x1="561.047" y1="279" x2="561.047" y2="246" stroke="#F73C6B"/>
<rect x="564.753" y="270" width="5" height="42" fill="#F73C6B"/>
<line x1="567.253" y1="281.045" x2="567.253" y2="270" stroke="#F73C6B"/>
<line x1="567.253" y1="323.045" x2="567.253" y2="312" stroke="#F73C6B"/>
<rect x="570.959" y="297" width="5" height="14" fill="#F73C6B"/>
<line x1="573.459" y1="322" x2="573.459" y2="289" stroke="#F73C6B"/>
<rect x="577.166" y="305" width="5" height="31" fill="#F73C6B"/>
<line x1="579.666" y1="347" x2="579.666" y2="298" stroke="#F73C6B"/>
<rect x="583.372" y="319" width="5" height="8" fill="#F73C6B"/>
<line x1="585.872" y1="355" x2="585.872" y2="326" stroke="#F73C6B"/>
<rect x="589.578" y="338" width="5" height="9" fill="#F73C6B"/>
<line x1="592.078" y1="351" x2="592.078" y2="331" stroke="#F73C6B"/>
<rect x="595.784" y="338" width="5" height="9" fill="#0FEDBE"/>
<line x1="598.284" y1="347" x2="598.284" y2="331" stroke="#0FEDBE"/>
<rect x="601.99" y="330" width="5" height="13" fill="#0FEDBE"/>
<line x1="604.49" y1="343" x2="604.49" y2="327" stroke="#0FEDBE"/>
<rect x="608.196" y="331" width="5" height="3" fill="#F73C6B"/>
<line x1="610.696" y1="344" x2="610.696" y2="324" stroke="#F73C6B"/>
<rect x="614.402" y="338" width="5" height="9" fill="#0FEDBE"/>
<line x1="616.902" y1="366" x2="616.902" y2="331" stroke="#0FEDBE"/>
<rect x="620.608" y="330" width="5" height="13" fill="#0FEDBE"/>
<line x1="623.108" y1="343" x2="623.108" y2="314" stroke="#0FEDBE"/>
<rect x="626.814" y="338" width="5" height="9" fill="#F73C6B"/>
<line x1="629.314" y1="351" x2="629.314" y2="331" stroke="#F73C6B"/>
<rect width="5" height="6" transform="matrix(1 0 0 -1 633.02 342)" fill="#F73C6B"/>
<line y1="-0.5" x2="9" y2="-0.5" transform="matrix(4.37115e-08 1 1 -4.37115e-08 636.02 329)" stroke="#F73C6B"/>
<rect x="639.226" y="330" width="5" height="9" fill="#F73C6B"/>
<line x1="641.726" y1="343" x2="641.726" y2="310" stroke="#F73C6B"/>
<rect x="645.432" y="330" width="5" height="3" fill="#F73C6B"/>
<line x1="647.932" y1="371" x2="647.932" y2="326" stroke="#F73C6B"/>
<rect x="651.638" y="332" width="5" height="4" fill="#F73C6B"/>
<line x1="654.138" y1="343" x2="654.138" y2="329" stroke="#F73C6B"/>
<rect width="5" height="6" transform="matrix(1 0 0 -1 657.844 342)" fill="#0FEDBE"/>
<line x1="660.344" y1="344" x2="660.344" y2="329" stroke="#0FEDBE"/>
<rect x="664.05" y="319" width="5" height="33" fill="#F73C6B"/>
<line x1="666.55" y1="355.045" x2="666.55" y2="344" stroke="#F73C6B"/>
<rect x="670.256" y="319" width="5" height="8" fill="#0FEDBE"/>
<line x1="672.756" y1="355" x2="672.756" y2="326" stroke="#0FEDBE"/>
<rect x="676.462" y="317" width="5" height="9" fill="#0FEDBE"/>
<line x1="678.962" y1="330" x2="678.962" y2="297" stroke="#0FEDBE"/>
<rect x="682.668" y="194" width="5" height="62" fill="#0FEDBE"/>
<line x1="685.168" y1="259" x2="685.168" y2="248" stroke="#0FEDBE"/>
<rect x="688.875" y="172" width="5" height="34" fill="#0FEDBE"/>
<line x1="691.375" y1="211" x2="691.375" y2="200" stroke="#0FEDBE"/>
<rect x="695.081" y="199" width="5" height="31" fill="#0FEDBE"/>
<line x1="697.581" y1="231" x2="697.581" y2="167" stroke="#0FEDBE"/>
<rect x="701.287" y="232" width="5" height="6" fill="#F73C6B"/>
<line x1="703.787" y1="247" x2="703.787" y2="183" stroke="#F73C6B"/>
<rect x="707.493" y="217" width="5" height="31" fill="#F73C6B"/>
<line x1="709.993" y1="259" x2="709.993" y2="210" stroke="#F73C6B"/>
<rect width="5" height="6" transform="matrix(1 0 0 -1 713.699 237)" fill="#0FEDBE"/>
<line y1="-0.5" x2="64" y2="-0.5" transform="matrix(-5.46393e-08 1 1 5.46393e-08 716.699 222)" stroke="#0FEDBE"/>
<rect x="719.905" y="237" width="5" height="3" fill="#F73C6B"/>
<line x1="722.405" y1="250" x2="722.405" y2="230" stroke="#F73C6B"/>
<rect x="726.111" y="224" width="5" height="16" fill="#F73C6B"/>
<line x1="728.611" y1="250" x2="728.611" y2="219" stroke="#F73C6B"/>
<rect x="732.317" y="172" width="5" height="34" fill="#0FEDBE"/>
<line x1="734.817" y1="256" x2="734.817" y2="200" stroke="#0FEDBE"/>
<rect x="738.523" y="148" width="5" height="34" fill="#0FEDBE"/>
<line x1="741.023" y1="198" x2="741.023" y2="140" stroke="#0FEDBE"/>
<rect x="744.729" y="149" width="5" height="9" fill="#0FEDBE"/>
<line x1="747.229" y1="162" x2="747.229" y2="129" stroke="#0FEDBE"/>
<rect x="750.935" y="102" width="5" height="42" fill="#0FEDBE"/>
<line x1="753.435" y1="113.045" x2="753.435" y2="102" stroke="#0FEDBE"/>
<line x1="753.435" y1="155.045" x2="753.435" y2="144" stroke="#0FEDBE"/>
<rect x="757.141" y="94" width="5" height="11" fill="#0FEDBE"/>
<line x1="759.641" y1="128" x2="759.641" y2="83" stroke="#0FEDBE"/>
<rect x="763.347" y="90" width="5" height="9" fill="#F73C6B"/>
<line x1="765.847" y1="103" x2="765.847" y2="83" stroke="#F73C6B"/>
<rect x="769.553" y="82" width="5" height="26" fill="#F73C6B"/>
<line x1="772.053" y1="95" x2="772.053" y2="62" stroke="#F73C6B"/>
<rect x="775.759" y="79" width="5" height="8" fill="#F73C6B"/>
<line x1="778.259" y1="115" x2="778.259" y2="86" stroke="#F73C6B"/>
<rect x="781.965" y="90" width="5" height="9" fill="#0FEDBE"/>
<line x1="784.465" y1="138" x2="784.465" y2="44" stroke="#0FEDBE"/>
<rect x="788.171" y="78" width="5" height="42" fill="#0FEDBE"/>
<line x1="790.671" y1="89.0454" x2="790.671" y2="78" stroke="#0FEDBE"/>
<line x1="790.671" y1="131.045" x2="790.671" y2="120" stroke="#0FEDBE"/>
<rect x="794.377" y="77" width="5" height="9" fill="#0FEDBE"/>
<line x1="796.877" y1="90" x2="796.877" y2="57" stroke="#0FEDBE"/>
<rect x="800.583" y="82" width="5" height="26" fill="#F73C6B"/>
<line x1="803.083" y1="115" x2="803.083" y2="62" stroke="#F73C6B"/>
<rect x="806.79" y="63.0005" width="5" height="31" fill="#0FEDBE"/>
<line x1="809.29" y1="105" x2="809.29" y2="55" stroke="#0FEDBE"/>
<rect x="812.996" y="62.0005" width="5" height="31" fill="#0FEDBE"/>
<line x1="815.496" y1="146" x2="815.496" y2="53" stroke="#0FEDBE"/>
<rect x="819.202" y="61" width="5" height="9" fill="#0FEDBE"/>
<line x1="821.702" y1="74" x2="821.702" y2="41" stroke="#0FEDBE"/>
<rect x="825.408" y="14" width="5" height="42" fill="#0FEDBE"/>
<line x1="827.908" y1="25.0454" x2="827.908" y2="14" stroke="#0FEDBE"/>
<line x1="827.908" y1="67.0454" x2="827.908" y2="56" stroke="#0FEDBE"/>
<rect x="831.614" y="9" width="5" height="63" fill="#F73C6B"/>
<line x1="834.114" y1="20.0454" x2="834.114" y2="9.00005" stroke="#F73C6B"/>
<line x1="834.114" y1="12" x2="834.114" y2="0.954639" stroke="#F73C6B"/>
<rect x="837.82" y="82" width="5" height="26" fill="#F73C6B"/>
<line x1="840.32" y1="95" x2="840.32" y2="62" stroke="#F73C6B"/>
<rect x="844.026" y="95" width="5" height="8" fill="#F73C6B"/>
<line x1="846.526" y1="131" x2="846.526" y2="102" stroke="#F73C6B"/>
<rect x="850.232" y="98" width="5" height="26" fill="#F73C6B"/>
<line x1="852.732" y1="131" x2="852.732" y2="78" stroke="#F73C6B"/>
<rect width="5" height="26" transform="matrix(1 0 0 -1 856.438 139)" fill="#F73C6B"/>
<line y1="-0.5" x2="33" y2="-0.5" transform="matrix(-4.37113e-08 1 1 4.37113e-08 859.438 126)" stroke="#F73C6B"/>
<rect x="862.644" y="90" width="5" height="9" fill="#0FEDBE"/>
<line x1="865.144" y1="138" x2="865.144" y2="44" stroke="#0FEDBE"/>
<rect x="868.85" y="77" width="5" height="9" fill="#0FEDBE"/>
<line x1="871.35" y1="90" x2="871.35" y2="57" stroke="#0FEDBE"/>
<rect x="875.056" y="73" width="5" height="26" fill="#F73C6B"/>
<line x1="877.556" y1="84.0454" x2="877.556" y2="73" stroke="#F73C6B"/>
<line x1="877.556" y1="76" x2="877.556" y2="64.9546" stroke="#F73C6B"/>
<rect x="881.262" y="66" width="5" height="13" fill="#0FEDBE"/>
<line x1="883.762" y1="79" x2="883.762" y2="50" stroke="#0FEDBE"/>
<rect x="887.468" y="74" width="5" height="9" fill="#F73C6B"/>
<line x1="889.968" y1="87" x2="889.968" y2="67" stroke="#F73C6B"/>
<rect width="5" height="6" transform="matrix(1 0 0 -1 893.674 78)" fill="#F73C6B"/>
<line y1="-0.5" x2="9" y2="-0.5" transform="matrix(4.37115e-08 1 1 -4.37115e-08 896.674 65)" stroke="#F73C6B"/>
<rect x="899.88" y="68" width="5" height="4" fill="#F73C6B"/>
<line x1="902.38" y1="79" x2="902.38" y2="65" stroke="#F73C6B"/>
<rect width="5" height="6" transform="matrix(1 0 0 -1 906.086 78)" fill="#0FEDBE"/>
<line x1="908.586" y1="80" x2="908.586" y2="65" stroke="#0FEDBE"/>
<rect x="912.789" y="41.6543" width="5" height="21" fill="#0FEDBE"/>
<line x1="914.792" y1="91" x2="914.792" y2="62" stroke="#0FEDBE"/>
</svg>
