<svg width="863" height="127" viewBox="0 0 863 127" fill="none" xmlns="http://www.w3.org/2000/svg">
<path d="M1.79297 21.1886L7.10289 7.48246L12.4128 5.28947L17.7227 14.0614L23.6964 12.4167L29.6701 2L35.6437 16.2544L47.5911 12.4167L52.901 27.2193H59.5384L64.8483 14.0614L69.4945 34.3465L76.1319 32.7018L87.4155 73.8202L93.3892 59.0175L98.6991 68.886L104.009 66.693L110.646 69.9825L115.956 80.3991L121.266 73.8202L139.851 72.1754L155.781 96.8465L162.418 64.5L167.728 55.7281L173.038 52.4386L179.675 32.7018L184.985 28.3158L190.959 31.057L196.933 19.5439L201.579 17.8991L207.553 26.1228H212.863L218.172 17.8991L224.81 11.3202L230.12 17.8991L236.093 3.09649L253.351 73.8202L259.324 69.9825L264.634 110.553L270.608 95.2018L275.254 92.4605H281.892L293.175 63.4035L300.476 68.886L305.122 75.4649L310.432 68.886L316.406 66.693L323.043 84.2368L327.026 97.943L333.663 95.2018L343.619 80.3991L352.248 81.4956L361.54 69.9825L367.514 85.8816L373.488 81.4956L378.798 87.5263L384.771 81.4956L390.745 82.5921L399.374 75.4649L407.339 71.6272L413.312 64.5L422.605 77.6579L435.879 91.364H442.517L448.49 88.6228L453.137 93.557H459.11L465.084 88.6228L470.394 104.522L476.368 100.684L481.678 116.583L492.961 87.5263L498.935 88.6228L504.245 75.4649L522.166 97.943L527.476 92.4605L539.423 100.684H546.724L556.017 46.9561L561.99 40.3772L567.964 48.6009L579.911 25.0263L589.867 17.8991L595.841 32.7018L601.815 28.3158L607.788 40.3772L613.098 32.7018L619.072 31.6053L625.709 20.0921L630.355 17.8991L636.993 50.7939L641.639 44.7632L647.613 55.1798L654.25 44.7632L665.534 56.2763L676.154 34.3465L682.127 60.6623L687.437 64.5L694.075 62.8553L700.048 57.9211L710.668 56.2763L716.642 44.7632L722.615 42.0219L727.925 34.3465H733.899L749.829 5.28947L756.466 42.0219L763.104 34.3465H768.414L775.715 42.0219L779.033 48.6009L790.317 42.0219L796.954 45.8596H802.264L806.91 36.5395H814.875L831.469 84.2368L842.089 59.0175L850.054 67.7895L862.001 68.886" stroke="#00BDDD"/>
<path d="M6.95779 7.48246L1.64697 21.1886L-3 127H862V68.886L850.051 67.7895L842.084 59.0175L831.463 84.2368L814.866 36.5395H806.9L802.253 45.8596H796.942L790.304 42.0219L779.018 48.6009L775.699 42.0219L768.397 34.3465H763.086L756.447 42.0219L749.809 5.28947L733.876 34.3465H727.902L722.591 42.0219L716.616 44.7632L710.642 56.2763L700.02 57.9211L694.045 62.8553L687.407 64.5L682.096 60.6623L676.121 34.3465L665.5 56.2763L654.214 44.7632L647.576 55.1798L641.601 44.7632L636.954 50.7939L630.315 17.8991L625.668 20.0921L619.03 31.6053L613.055 32.7018L607.744 40.3772L601.77 28.3158L595.795 32.7018L589.82 17.8991L579.863 25.0263L567.913 48.6009L561.939 40.3772L555.964 46.9561L546.67 100.684H539.368L527.418 92.4605L522.107 97.943L504.183 75.4649L498.873 88.6228L492.898 87.5263L481.612 116.583L476.302 100.684L470.327 104.522L465.016 88.6228L459.041 93.557H453.067L448.42 88.6228L442.445 91.364H435.807L422.53 77.6579L413.236 64.5L407.261 71.6272L399.295 75.4649L390.665 82.5921L384.69 81.4956L378.715 87.5263L373.404 81.4956L367.43 85.8816L361.455 69.9825L352.161 81.4956L343.531 80.3991L333.573 95.2018L326.935 97.943L322.952 84.2368L316.313 66.693L310.338 68.886L305.028 75.4649L300.381 68.886L293.078 63.4035L281.793 92.4605H275.154L270.507 95.2018L264.533 110.553L259.222 69.9825L253.247 73.8202L235.987 3.09649L230.012 17.8991L224.701 11.3202L218.063 17.8991L212.752 26.1228H207.441L201.467 17.8991L196.82 19.5439L190.845 31.057L184.87 28.3158L179.559 32.7018L172.921 52.4386L167.61 55.7281L162.299 64.5L155.661 96.8465L139.728 72.1754L121.14 73.8202L115.83 80.3991L110.519 69.9825L103.88 66.693L98.5695 68.886L93.2586 59.0175L87.284 73.8202L75.9985 32.7018L69.3599 34.3465L64.713 14.0614L59.4021 27.2193H52.7636L47.4528 12.4167L35.5035 16.2544L29.5288 2L23.5541 12.4167L17.5794 14.0614L12.2686 5.28947L6.95779 7.48246Z" fill="url(#paint0_linear_1_3857)"/>
<defs>
<linearGradient id="paint0_linear_1_3857" x1="429.5" y1="2" x2="429.5" y2="127" gradientUnits="userSpaceOnUse">
<stop offset="0.11" stop-color="#58B9FF"/>
<stop offset="0.49" stop-color="#050505" stop-opacity="0"/>
</linearGradient>
</defs>
</svg>
