<svg width="21" height="21" viewBox="0 0 21 21" fill="none" xmlns="http://www.w3.org/2000/svg">
<path d="M0.671631 9.32843V3.32843C0.671631 3.0451 0.767464 2.8076 0.959131 2.61593C1.1508 2.42426 1.3883 2.32843 1.67163 2.32843H7.67163C7.95496 2.32843 8.19246 2.42426 8.38413 2.61593C8.5758 2.8076 8.67163 3.0451 8.67163 3.32843V9.32843C8.67163 9.61176 8.5758 9.84926 8.38413 10.0409C8.19246 10.2326 7.95496 10.3284 7.67163 10.3284H1.67163C1.3883 10.3284 1.1508 10.2326 0.959131 10.0409C0.767464 9.84926 0.671631 9.61176 0.671631 9.32843ZM10.6716 19.3284V13.3284C10.6716 13.0451 10.7675 12.8076 10.9591 12.6159C11.1508 12.4243 11.3883 12.3284 11.6716 12.3284H17.6716C17.955 12.3284 18.1925 12.4243 18.3841 12.6159C18.5758 12.8076 18.6716 13.0451 18.6716 13.3284V19.3284C18.6716 19.6118 18.5758 19.8493 18.3841 20.0409C18.1925 20.2326 17.955 20.3284 17.6716 20.3284H11.6716C11.3883 20.3284 11.1508 20.2326 10.9591 20.0409C10.7675 19.8493 10.6716 19.6118 10.6716 19.3284ZM0.671631 19.3284V13.3284C0.671631 13.0451 0.767464 12.8076 0.959131 12.6159C1.1508 12.4243 1.3883 12.3284 1.67163 12.3284H7.67163C7.95496 12.3284 8.19246 12.4243 8.38413 12.6159C8.5758 12.8076 8.67163 13.0451 8.67163 13.3284V19.3284C8.67163 19.6118 8.5758 19.8493 8.38413 20.0409C8.19246 20.2326 7.95496 20.3284 7.67163 20.3284H1.67163C1.3883 20.3284 1.1508 20.2326 0.959131 20.0409C0.767464 19.8493 0.671631 19.6118 0.671631 19.3284ZM2.67163 8.32843H6.67163V4.32843H2.67163V8.32843ZM12.6716 18.3284H16.6716V14.3284H12.6716V18.3284ZM2.67163 18.3284H6.67163V14.3284H2.67163V18.3284Z" fill="#212121"/>
<path d="M14.6716 2.08578L18.9143 6.32842L14.6716 10.5711L10.429 6.32842L14.6716 2.08578Z" stroke="#212121" stroke-width="2"/>
</svg>
