<svg width="679" height="147" viewBox="0 0 679 147" fill="none" xmlns="http://www.w3.org/2000/svg">
<path d="M5.72672 143.14C5.25072 143.14 4.80272 143.061 4.38272 142.902C3.96272 142.734 3.58939 142.459 3.26272 142.076C2.93605 141.693 2.67939 141.18 2.49272 140.536C2.31539 139.883 2.22672 139.071 2.22672 138.1V137.82C2.22672 136.915 2.31539 136.159 2.49272 135.552C2.67939 134.936 2.93605 134.446 3.26272 134.082C3.58939 133.718 3.96272 133.457 4.38272 133.298C4.80272 133.139 5.25072 133.06 5.72672 133.06C6.20272 133.06 6.65072 133.139 7.07072 133.298C7.49072 133.457 7.86405 133.718 8.19072 134.082C8.51739 134.446 8.76939 134.936 8.94672 135.552C9.13339 136.159 9.22672 136.915 9.22672 137.82V138.1C9.22672 139.071 9.13339 139.883 8.94672 140.536C8.76939 141.18 8.51739 141.693 8.19072 142.076C7.86405 142.459 7.49072 142.734 7.07072 142.902C6.65072 143.061 6.20272 143.14 5.72672 143.14ZM5.72672 141.992C6.02539 141.992 6.30539 141.941 6.56672 141.838C6.82805 141.726 7.05672 141.53 7.25272 141.25C7.45805 140.961 7.61672 140.564 7.72872 140.06C7.85005 139.547 7.91072 138.893 7.91072 138.1V137.82C7.91072 136.849 7.80805 136.103 7.60272 135.58C7.40672 135.057 7.14072 134.698 6.80472 134.502C6.47805 134.306 6.11872 134.208 5.72672 134.208C5.33472 134.208 4.97072 134.306 4.63472 134.502C4.30805 134.698 4.04205 135.057 3.83672 135.58C3.64072 136.103 3.54272 136.849 3.54272 137.82V138.1C3.54272 138.893 3.59872 139.547 3.71072 140.06C3.83205 140.564 3.99072 140.961 4.18672 141.25C4.39205 141.53 4.62539 141.726 4.88672 141.838C5.15739 141.941 5.43739 141.992 5.72672 141.992ZM14.0584 143.14C13.5357 143.14 13.0644 143.061 12.6444 142.902C12.2337 142.743 11.893 142.505 11.6224 142.188C11.3517 141.861 11.1604 141.455 11.0484 140.97H12.3644C12.495 141.297 12.7004 141.544 12.9804 141.712C13.2697 141.88 13.629 141.964 14.0584 141.964C14.5064 141.964 14.9077 141.852 15.2624 141.628C15.6264 141.404 15.9157 141.026 16.1304 140.494C16.3544 139.962 16.4757 139.234 16.4944 138.31C16.233 138.767 15.869 139.094 15.4024 139.29C14.945 139.477 14.497 139.57 14.0584 139.57C13.405 139.57 12.8357 139.449 12.3504 139.206C11.8744 138.954 11.501 138.595 11.2304 138.128C10.969 137.652 10.8384 137.078 10.8384 136.406V136.266C10.8384 135.641 10.9877 135.09 11.2864 134.614C11.585 134.129 11.9817 133.751 12.4764 133.48C12.9804 133.2 13.531 133.06 14.1284 133.06C14.8657 133.06 15.5004 133.219 16.0324 133.536C16.5644 133.853 16.975 134.343 17.2644 135.006C17.5537 135.659 17.6984 136.504 17.6984 137.54V137.82C17.6984 139.108 17.5304 140.144 17.1944 140.928C16.8584 141.703 16.415 142.267 15.8644 142.622C15.3137 142.967 14.7117 143.14 14.0584 143.14ZM14.2404 138.394C14.9217 138.394 15.4397 138.221 15.7944 137.876C16.149 137.531 16.3264 137.036 16.3264 136.392V136.252C16.3264 135.617 16.1444 135.123 15.7804 134.768C15.4257 134.413 14.9124 134.236 14.2404 134.236C13.559 134.236 13.041 134.409 12.6864 134.754C12.3317 135.09 12.1544 135.589 12.1544 136.252V136.392C12.1544 137.036 12.3317 137.531 12.6864 137.876C13.041 138.221 13.559 138.394 14.2404 138.394ZM20.6449 143.14C20.4676 143.14 20.3043 143.093 20.1549 143C20.0056 142.916 19.8843 142.799 19.7909 142.65C19.7069 142.501 19.6649 142.337 19.6649 142.16C19.6649 141.88 19.7583 141.647 19.9449 141.46C20.1409 141.273 20.3743 141.18 20.6449 141.18C20.9156 141.18 21.1443 141.273 21.3309 141.46C21.5269 141.647 21.6249 141.88 21.6249 142.16C21.6249 142.337 21.5783 142.501 21.4849 142.65C21.4009 142.799 21.2843 142.916 21.1349 143C20.9949 143.093 20.8316 143.14 20.6449 143.14ZM20.6449 137.4C20.4676 137.4 20.3043 137.358 20.1549 137.274C20.0056 137.181 19.8843 137.059 19.7909 136.91C19.7069 136.761 19.6649 136.597 19.6649 136.42C19.6649 136.14 19.7583 135.907 19.9449 135.72C20.1409 135.533 20.3743 135.44 20.6449 135.44C20.9156 135.44 21.1443 135.533 21.3309 135.72C21.5269 135.907 21.6249 136.14 21.6249 136.42C21.6249 136.597 21.5783 136.761 21.4849 136.91C21.4009 137.059 21.2843 137.181 21.1349 137.274C20.9949 137.358 20.8316 137.4 20.6449 137.4ZM26.7322 143.14C26.0229 143.14 25.4162 143.019 24.9122 142.776C24.4175 142.524 24.0349 142.188 23.7642 141.768C23.5029 141.339 23.3722 140.863 23.3722 140.34H24.6882C24.6882 140.816 24.8515 141.208 25.1782 141.516C25.5049 141.815 26.0229 141.964 26.7322 141.964C27.4415 141.964 27.9595 141.81 28.2862 141.502C28.6129 141.185 28.7762 140.774 28.7762 140.27C28.7762 139.747 28.6082 139.327 28.2722 139.01C27.9455 138.683 27.4322 138.52 26.7322 138.52H25.6822V137.4H26.7322C27.4042 137.4 27.8895 137.26 28.1882 136.98C28.4869 136.691 28.6362 136.294 28.6362 135.79C28.6362 135.305 28.4915 134.927 28.2022 134.656C27.9129 134.376 27.4229 134.236 26.7322 134.236C26.0695 134.236 25.5842 134.381 25.2762 134.67C24.9775 134.95 24.8282 135.3 24.8282 135.72H23.5122C23.5122 135.225 23.6382 134.777 23.8902 134.376C24.1422 133.975 24.5062 133.657 24.9822 133.424C25.4675 133.181 26.0509 133.06 26.7322 133.06C27.4229 133.06 28.0062 133.181 28.4822 133.424C28.9675 133.657 29.3315 133.97 29.5742 134.362C29.8262 134.754 29.9522 135.183 29.9522 135.65C29.9522 136.21 29.8029 136.686 29.5042 137.078C29.2149 137.461 28.8042 137.731 28.2722 137.89C28.8322 138.067 29.2755 138.357 29.6022 138.758C29.9289 139.159 30.0922 139.71 30.0922 140.41C30.0922 140.905 29.9615 141.362 29.7002 141.782C29.4389 142.193 29.0562 142.524 28.5522 142.776C28.0575 143.019 27.4509 143.14 26.7322 143.14ZM35.2716 143.14C34.7956 143.14 34.3476 143.061 33.9276 142.902C33.5076 142.734 33.1343 142.459 32.8076 142.076C32.481 141.693 32.2243 141.18 32.0376 140.536C31.8603 139.883 31.7716 139.071 31.7716 138.1V137.82C31.7716 136.915 31.8603 136.159 32.0376 135.552C32.2243 134.936 32.481 134.446 32.8076 134.082C33.1343 133.718 33.5076 133.457 33.9276 133.298C34.3476 133.139 34.7956 133.06 35.2716 133.06C35.7476 133.06 36.1956 133.139 36.6156 133.298C37.0356 133.457 37.409 133.718 37.7356 134.082C38.0623 134.446 38.3143 134.936 38.4916 135.552C38.6783 136.159 38.7716 136.915 38.7716 137.82V138.1C38.7716 139.071 38.6783 139.883 38.4916 140.536C38.3143 141.18 38.0623 141.693 37.7356 142.076C37.409 142.459 37.0356 142.734 36.6156 142.902C36.1956 143.061 35.7476 143.14 35.2716 143.14ZM35.2716 141.992C35.5703 141.992 35.8503 141.941 36.1116 141.838C36.373 141.726 36.6016 141.53 36.7976 141.25C37.003 140.961 37.1616 140.564 37.2736 140.06C37.395 139.547 37.4556 138.893 37.4556 138.1V137.82C37.4556 136.849 37.353 136.103 37.1476 135.58C36.9516 135.057 36.6856 134.698 36.3496 134.502C36.023 134.306 35.6636 134.208 35.2716 134.208C34.8796 134.208 34.5156 134.306 34.1796 134.502C33.853 134.698 33.587 135.057 33.3816 135.58C33.1856 136.103 33.0876 136.849 33.0876 137.82V138.1C33.0876 138.893 33.1436 139.547 33.2556 140.06C33.377 140.564 33.5356 140.961 33.7316 141.25C33.937 141.53 34.1703 141.726 34.4316 141.838C34.7023 141.941 34.9823 141.992 35.2716 141.992Z" fill="#999999"/>
<path d="M596.854 143V141.852H599.192V134.642L596.854 136.308V134.88L599.22 133.2H600.536V141.852H602.454V143H596.854ZM607.289 143.14C606.206 143.14 605.338 142.781 604.685 142.062C604.041 141.334 603.719 140.2 603.719 138.66V138.38C603.719 137.092 603.887 136.061 604.223 135.286C604.559 134.502 605.007 133.937 605.567 133.592C606.127 133.237 606.748 133.06 607.429 133.06C607.933 133.06 608.386 133.139 608.787 133.298C609.188 133.457 609.524 133.699 609.795 134.026C610.066 134.343 610.257 134.745 610.369 135.23H609.053C608.922 134.903 608.722 134.656 608.451 134.488C608.18 134.32 607.84 134.236 607.429 134.236C606.962 134.236 606.542 134.348 606.169 134.572C605.805 134.796 605.511 135.174 605.287 135.706C605.072 136.229 604.951 136.957 604.923 137.89C605.194 137.433 605.558 137.111 606.015 136.924C606.472 136.728 606.92 136.63 607.359 136.63C608.012 136.63 608.577 136.756 609.053 137.008C609.538 137.251 609.912 137.605 610.173 138.072C610.444 138.539 610.579 139.113 610.579 139.794V139.934C610.579 140.55 610.43 141.101 610.131 141.586C609.832 142.071 609.436 142.454 608.941 142.734C608.446 143.005 607.896 143.14 607.289 143.14ZM607.177 141.964C607.858 141.964 608.376 141.791 608.731 141.446C609.086 141.101 609.263 140.601 609.263 139.948V139.808C609.263 139.164 609.086 138.669 608.731 138.324C608.376 137.979 607.858 137.806 607.177 137.806C606.496 137.806 605.978 137.979 605.623 138.324C605.268 138.669 605.091 139.164 605.091 139.808V139.948C605.091 140.592 605.268 141.091 605.623 141.446C605.978 141.791 606.496 141.964 607.177 141.964ZM613.455 143.14C613.278 143.14 613.115 143.093 612.965 143C612.816 142.916 612.695 142.799 612.601 142.65C612.517 142.501 612.475 142.337 612.475 142.16C612.475 141.88 612.569 141.647 612.755 141.46C612.951 141.273 613.185 141.18 613.455 141.18C613.726 141.18 613.955 141.273 614.141 141.46C614.337 141.647 614.435 141.88 614.435 142.16C614.435 142.337 614.389 142.501 614.295 142.65C614.211 142.799 614.095 142.916 613.945 143C613.805 143.093 613.642 143.14 613.455 143.14ZM613.455 137.4C613.278 137.4 613.115 137.358 612.965 137.274C612.816 137.181 612.695 137.059 612.601 136.91C612.517 136.761 612.475 136.597 612.475 136.42C612.475 136.14 612.569 135.907 612.755 135.72C612.951 135.533 613.185 135.44 613.455 135.44C613.726 135.44 613.955 135.533 614.141 135.72C614.337 135.907 614.435 136.14 614.435 136.42C614.435 136.597 614.389 136.761 614.295 136.91C614.211 137.059 614.095 137.181 613.945 137.274C613.805 137.358 613.642 137.4 613.455 137.4ZM619.893 143.14C619.417 143.14 618.969 143.061 618.549 142.902C618.129 142.734 617.755 142.459 617.429 142.076C617.102 141.693 616.845 141.18 616.659 140.536C616.481 139.883 616.393 139.071 616.393 138.1V137.82C616.393 136.915 616.481 136.159 616.659 135.552C616.845 134.936 617.102 134.446 617.429 134.082C617.755 133.718 618.129 133.457 618.549 133.298C618.969 133.139 619.417 133.06 619.893 133.06C620.369 133.06 620.817 133.139 621.237 133.298C621.657 133.457 622.03 133.718 622.357 134.082C622.683 134.446 622.935 134.936 623.113 135.552C623.299 136.159 623.393 136.915 623.393 137.82V138.1C623.393 139.071 623.299 139.883 623.113 140.536C622.935 141.18 622.683 141.693 622.357 142.076C622.03 142.459 621.657 142.734 621.237 142.902C620.817 143.061 620.369 143.14 619.893 143.14ZM619.893 141.992C620.191 141.992 620.471 141.941 620.733 141.838C620.994 141.726 621.223 141.53 621.419 141.25C621.624 140.961 621.783 140.564 621.895 140.06C622.016 139.547 622.077 138.893 622.077 138.1V137.82C622.077 136.849 621.974 136.103 621.769 135.58C621.573 135.057 621.307 134.698 620.971 134.502C620.644 134.306 620.285 134.208 619.893 134.208C619.501 134.208 619.137 134.306 618.801 134.502C618.474 134.698 618.208 135.057 618.003 135.58C617.807 136.103 617.709 136.849 617.709 137.82V138.1C617.709 138.893 617.765 139.547 617.877 140.06C617.998 140.564 618.157 140.961 618.353 141.25C618.558 141.53 618.791 141.726 619.053 141.838C619.323 141.941 619.603 141.992 619.893 141.992ZM628.574 143.14C628.098 143.14 627.65 143.061 627.23 142.902C626.81 142.734 626.437 142.459 626.11 142.076C625.784 141.693 625.527 141.18 625.34 140.536C625.163 139.883 625.074 139.071 625.074 138.1V137.82C625.074 136.915 625.163 136.159 625.34 135.552C625.527 134.936 625.784 134.446 626.11 134.082C626.437 133.718 626.81 133.457 627.23 133.298C627.65 133.139 628.098 133.06 628.574 133.06C629.05 133.06 629.498 133.139 629.918 133.298C630.338 133.457 630.712 133.718 631.038 134.082C631.365 134.446 631.617 134.936 631.794 135.552C631.981 136.159 632.074 136.915 632.074 137.82V138.1C632.074 139.071 631.981 139.883 631.794 140.536C631.617 141.18 631.365 141.693 631.038 142.076C630.712 142.459 630.338 142.734 629.918 142.902C629.498 143.061 629.05 143.14 628.574 143.14ZM628.574 141.992C628.873 141.992 629.153 141.941 629.414 141.838C629.676 141.726 629.904 141.53 630.1 141.25C630.306 140.961 630.464 140.564 630.576 140.06C630.698 139.547 630.758 138.893 630.758 138.1V137.82C630.758 136.849 630.656 136.103 630.45 135.58C630.254 135.057 629.988 134.698 629.652 134.502C629.326 134.306 628.966 134.208 628.574 134.208C628.182 134.208 627.818 134.306 627.482 134.502C627.156 134.698 626.89 135.057 626.684 135.58C626.488 136.103 626.39 136.849 626.39 137.82V138.1C626.39 138.893 626.446 139.547 626.558 140.06C626.68 140.564 626.838 140.961 627.034 141.25C627.24 141.53 627.473 141.726 627.734 141.838C628.005 141.941 628.285 141.992 628.574 141.992Z" fill="#999999"/>
<path d="M637.181 12.11V9.534H634.647V8.386H637.181V5.81H638.413V8.386H640.947V9.534H638.413V12.11H637.181ZM642.415 14V12.852H644.753V5.642L642.415 7.308V5.88L644.781 4.2H646.097V12.852H648.015V14H642.415ZM650.539 14.14C650.362 14.14 650.199 14.0933 650.049 14C649.9 13.916 649.779 13.7993 649.685 13.65C649.601 13.5007 649.559 13.3373 649.559 13.16C649.559 12.88 649.653 12.6467 649.839 12.46C650.035 12.2733 650.269 12.18 650.539 12.18C650.81 12.18 651.039 12.2733 651.225 12.46C651.421 12.6467 651.519 12.88 651.519 13.16C651.519 13.3373 651.473 13.5007 651.379 13.65C651.295 13.7993 651.179 13.916 651.029 14C650.889 14.0933 650.726 14.14 650.539 14.14ZM650.539 8.4C650.362 8.4 650.199 8.358 650.049 8.274C649.9 8.18067 649.779 8.05933 649.685 7.91C649.601 7.76067 649.559 7.59733 649.559 7.42C649.559 7.14 649.653 6.90667 649.839 6.72C650.035 6.53333 650.269 6.44 650.539 6.44C650.81 6.44 651.039 6.53333 651.225 6.72C651.421 6.90667 651.519 7.14 651.519 7.42C651.519 7.59733 651.473 7.76067 651.379 7.91C651.295 8.05933 651.179 8.18067 651.029 8.274C650.889 8.358 650.726 8.4 650.539 8.4ZM656.977 14.14C656.501 14.14 656.053 14.0607 655.633 13.902C655.213 13.734 654.839 13.4587 654.513 13.076C654.186 12.6933 653.929 12.18 653.743 11.536C653.565 10.8827 653.477 10.0707 653.477 9.1V8.82C653.477 7.91467 653.565 7.15867 653.743 6.552C653.929 5.936 654.186 5.446 654.513 5.082C654.839 4.718 655.213 4.45667 655.633 4.298C656.053 4.13933 656.501 4.06 656.977 4.06C657.453 4.06 657.901 4.13933 658.321 4.298C658.741 4.45667 659.114 4.718 659.441 5.082C659.767 5.446 660.019 5.936 660.197 6.552C660.383 7.15867 660.477 7.91467 660.477 8.82V9.1C660.477 10.0707 660.383 10.8827 660.197 11.536C660.019 12.18 659.767 12.6933 659.441 13.076C659.114 13.4587 658.741 13.734 658.321 13.902C657.901 14.0607 657.453 14.14 656.977 14.14ZM656.977 12.992C657.275 12.992 657.555 12.9407 657.817 12.838C658.078 12.726 658.307 12.53 658.503 12.25C658.708 11.9607 658.867 11.564 658.979 11.06C659.1 10.5467 659.161 9.89333 659.161 9.1V8.82C659.161 7.84933 659.058 7.10267 658.853 6.58C658.657 6.05733 658.391 5.698 658.055 5.502C657.728 5.306 657.369 5.208 656.977 5.208C656.585 5.208 656.221 5.306 655.885 5.502C655.558 5.698 655.292 6.05733 655.087 6.58C654.891 7.10267 654.793 7.84933 654.793 8.82V9.1C654.793 9.89333 654.849 10.5467 654.961 11.06C655.082 11.564 655.241 11.9607 655.437 12.25C655.642 12.53 655.875 12.726 656.137 12.838C656.407 12.9407 656.687 12.992 656.977 12.992ZM665.658 14.14C665.182 14.14 664.734 14.0607 664.314 13.902C663.894 13.734 663.521 13.4587 663.194 13.076C662.868 12.6933 662.611 12.18 662.424 11.536C662.247 10.8827 662.158 10.0707 662.158 9.1V8.82C662.158 7.91467 662.247 7.15867 662.424 6.552C662.611 5.936 662.868 5.446 663.194 5.082C663.521 4.718 663.894 4.45667 664.314 4.298C664.734 4.13933 665.182 4.06 665.658 4.06C666.134 4.06 666.582 4.13933 667.002 4.298C667.422 4.45667 667.796 4.718 668.122 5.082C668.449 5.446 668.701 5.936 668.878 6.552C669.065 7.15867 669.158 7.91467 669.158 8.82V9.1C669.158 10.0707 669.065 10.8827 668.878 11.536C668.701 12.18 668.449 12.6933 668.122 13.076C667.796 13.4587 667.422 13.734 667.002 13.902C666.582 14.0607 666.134 14.14 665.658 14.14ZM665.658 12.992C665.957 12.992 666.237 12.9407 666.498 12.838C666.76 12.726 666.988 12.53 667.184 12.25C667.39 11.9607 667.548 11.564 667.66 11.06C667.782 10.5467 667.842 9.89333 667.842 9.1V8.82C667.842 7.84933 667.74 7.10267 667.534 6.58C667.338 6.05733 667.072 5.698 666.736 5.502C666.41 5.306 666.05 5.208 665.658 5.208C665.266 5.208 664.902 5.306 664.566 5.502C664.24 5.698 663.974 6.05733 663.768 6.58C663.572 7.10267 663.474 7.84933 663.474 8.82V9.1C663.474 9.89333 663.53 10.5467 663.642 11.06C663.764 11.564 663.922 11.9607 664.118 12.25C664.324 12.53 664.557 12.726 664.818 12.838C665.089 12.9407 665.369 12.992 665.658 12.992Z" fill="#999999"/>
<path d="M634.128 122.654V121.506H638.328V122.654H634.128ZM639.657 126V124.852H641.995V117.642L639.657 119.308V117.88L642.023 116.2H643.339V124.852H645.257V126H639.657ZM647.782 126.14C647.604 126.14 647.441 126.093 647.292 126C647.142 125.916 647.021 125.799 646.928 125.65C646.844 125.501 646.802 125.337 646.802 125.16C646.802 124.88 646.895 124.647 647.082 124.46C647.278 124.273 647.511 124.18 647.782 124.18C648.052 124.18 648.281 124.273 648.468 124.46C648.664 124.647 648.762 124.88 648.762 125.16C648.762 125.337 648.715 125.501 648.622 125.65C648.538 125.799 648.421 125.916 648.272 126C648.132 126.093 647.968 126.14 647.782 126.14ZM654.219 126.14C653.743 126.14 653.295 126.061 652.875 125.902C652.455 125.734 652.082 125.459 651.755 125.076C651.428 124.693 651.172 124.18 650.985 123.536C650.808 122.883 650.719 122.071 650.719 121.1V120.82C650.719 119.915 650.808 119.159 650.985 118.552C651.172 117.936 651.428 117.446 651.755 117.082C652.082 116.718 652.455 116.457 652.875 116.298C653.295 116.139 653.743 116.06 654.219 116.06C654.695 116.06 655.143 116.139 655.563 116.298C655.983 116.457 656.356 116.718 656.683 117.082C657.01 117.446 657.262 117.936 657.439 118.552C657.626 119.159 657.719 119.915 657.719 120.82V121.1C657.719 122.071 657.626 122.883 657.439 123.536C657.262 124.18 657.01 124.693 656.683 125.076C656.356 125.459 655.983 125.734 655.563 125.902C655.143 126.061 654.695 126.14 654.219 126.14ZM654.219 124.992C654.518 124.992 654.798 124.941 655.059 124.838C655.32 124.726 655.549 124.53 655.745 124.25C655.95 123.961 656.109 123.564 656.221 123.06C656.342 122.547 656.403 121.893 656.403 121.1V120.82C656.403 119.849 656.3 119.103 656.095 118.58C655.899 118.057 655.633 117.698 655.297 117.502C654.97 117.306 654.611 117.208 654.219 117.208C653.827 117.208 653.463 117.306 653.127 117.502C652.8 117.698 652.534 118.057 652.329 118.58C652.133 119.103 652.035 119.849 652.035 120.82V121.1C652.035 121.893 652.091 122.547 652.203 123.06C652.324 123.564 652.483 123.961 652.679 124.25C652.884 124.53 653.118 124.726 653.379 124.838C653.65 124.941 653.93 124.992 654.219 124.992ZM662.901 126.14C662.425 126.14 661.977 126.061 661.557 125.902C661.137 125.734 660.763 125.459 660.437 125.076C660.11 124.693 659.853 124.18 659.667 123.536C659.489 122.883 659.401 122.071 659.401 121.1V120.82C659.401 119.915 659.489 119.159 659.667 118.552C659.853 117.936 660.11 117.446 660.437 117.082C660.763 116.718 661.137 116.457 661.557 116.298C661.977 116.139 662.425 116.06 662.901 116.06C663.377 116.06 663.825 116.139 664.245 116.298C664.665 116.457 665.038 116.718 665.365 117.082C665.691 117.446 665.943 117.936 666.121 118.552C666.307 119.159 666.401 119.915 666.401 120.82V121.1C666.401 122.071 666.307 122.883 666.121 123.536C665.943 124.18 665.691 124.693 665.365 125.076C665.038 125.459 664.665 125.734 664.245 125.902C663.825 126.061 663.377 126.14 662.901 126.14ZM662.901 124.992C663.199 124.992 663.479 124.941 663.741 124.838C664.002 124.726 664.231 124.53 664.427 124.25C664.632 123.961 664.791 123.564 664.903 123.06C665.024 122.547 665.085 121.893 665.085 121.1V120.82C665.085 119.849 664.982 119.103 664.777 118.58C664.581 118.057 664.315 117.698 663.979 117.502C663.652 117.306 663.293 117.208 662.901 117.208C662.509 117.208 662.145 117.306 661.809 117.502C661.482 117.698 661.216 118.057 661.011 118.58C660.815 119.103 660.717 119.849 660.717 120.82V121.1C660.717 121.893 660.773 122.547 660.885 123.06C661.006 123.564 661.165 123.961 661.361 124.25C661.566 124.53 661.799 124.726 662.061 124.838C662.331 124.941 662.611 124.992 662.901 124.992ZM669.902 120.96C669.249 120.96 668.712 120.75 668.292 120.33C667.872 119.901 667.662 119.341 667.662 118.65V118.51C667.662 118.053 667.756 117.651 667.942 117.306C668.138 116.961 668.404 116.69 668.74 116.494C669.086 116.298 669.473 116.2 669.902 116.2C670.341 116.2 670.728 116.298 671.064 116.494C671.4 116.69 671.662 116.961 671.848 117.306C672.044 117.651 672.142 118.053 672.142 118.51V118.65C672.142 119.341 671.932 119.901 671.512 120.33C671.092 120.75 670.556 120.96 669.902 120.96ZM669.902 119.896C670.22 119.896 670.472 119.793 670.658 119.588C670.845 119.383 670.938 119.07 670.938 118.65V118.51C670.938 118.09 670.845 117.777 670.658 117.572C670.472 117.367 670.22 117.264 669.902 117.264C669.585 117.264 669.333 117.367 669.146 117.572C668.96 117.777 668.866 118.09 668.866 118.51V118.65C668.866 119.07 668.96 119.383 669.146 119.588C669.333 119.793 669.585 119.896 669.902 119.896ZM669.062 126.14L675.782 116.34H677.182L670.462 126.14H669.062ZM676.342 126.28C675.689 126.28 675.152 126.07 674.732 125.65C674.312 125.221 674.102 124.661 674.102 123.97V123.83C674.102 123.373 674.196 122.971 674.382 122.626C674.578 122.281 674.844 122.01 675.18 121.814C675.526 121.618 675.913 121.52 676.342 121.52C676.781 121.52 677.168 121.618 677.504 121.814C677.84 122.01 678.102 122.281 678.288 122.626C678.484 122.971 678.582 123.373 678.582 123.83V123.97C678.582 124.661 678.372 125.221 677.952 125.65C677.532 126.07 676.996 126.28 676.342 126.28ZM676.342 125.216C676.66 125.216 676.912 125.113 677.098 124.908C677.285 124.703 677.378 124.39 677.378 123.97V123.83C677.378 123.41 677.285 123.097 677.098 122.892C676.912 122.687 676.66 122.584 676.342 122.584C676.025 122.584 675.773 122.687 675.586 122.892C675.4 123.097 675.306 123.41 675.306 123.83V123.97C675.306 124.39 675.4 124.703 675.586 124.908C675.773 125.113 676.025 125.216 676.342 125.216Z" fill="#999999"/>
<path d="M1 17.0563L5.29167 31.0843C9.58333 45.1123 18.1667 73.1684 26.75 76.0071C35.3333 78.8459 43.9167 56.4674 52.5 47.1948C61.0833 37.9222 69.6667 41.7556 78.25 49.0419C86.8333 56.3281 95.4167 67.0673 104 80.8963C112.583 94.7253 121.167 111.644 129.75 109.135C138.333 106.626 146.917 84.6881 155.5 80.2032C164.083 75.7183 172.667 88.6861 181.25 93.5039C189.833 98.3218 198.417 94.9897 207 94.38C215.583 93.7704 224.167 95.8833 232.75 92.2406C241.333 88.598 249.917 79.1998 258.5 81.2115C267.083 83.2233 275.667 96.6449 284.25 102.138C292.833 107.631 301.417 105.196 310 90.9894C318.583 76.783 327.167 50.8056 335.75 33.5428C344.333 16.2799 352.917 7.73175 361.5 21.4305C370.083 35.1293 378.667 71.0751 387.25 82.5779C395.833 94.0807 404.417 81.1405 413 79.462C421.583 77.7835 430.167 87.3667 438.75 75.4255C447.333 63.4844 455.917 30.019 464.5 18.2768C473.083 6.53461 481.667 16.5157 490.25 15.184C498.833 13.8523 507.417 1.20774 516 6.13329C524.583 11.0588 533.167 33.5545 541.75 45.9703C550.333 58.3861 558.917 60.722 567.5 57.3384C576.083 53.9548 584.667 44.8517 593.25 42.4214C601.833 39.9911 610.417 44.2337 614.708 46.355L619 48.4763" stroke="#F044FF"/>
<path d="M1 84.1981L5.29167 82.8597C9.58333 81.5213 18.1667 78.8444 26.75 68.5921C35.3333 58.3397 43.9167 40.5119 52.5 37.5534C61.0833 34.5948 69.6667 46.5056 78.25 48.9862C86.8333 51.4669 95.4167 44.5173 104 51.6899C112.583 58.8625 121.167 80.1574 129.75 76.6717C138.333 73.186 146.917 44.9197 155.5 49.2372C164.083 53.5546 172.667 90.4557 181.25 102.352C189.833 114.248 198.417 101.139 207 99.4869C215.583 97.8349 224.167 107.64 232.75 97.2052C241.333 86.7707 249.917 56.0969 258.5 59.244C267.083 62.3911 275.667 99.3592 284.25 103.109C292.833 106.858 301.417 77.3885 310 62.5815C318.583 47.7744 327.167 47.6298 335.75 61.6161C344.333 75.6024 352.917 103.72 361.5 98.1409C370.083 92.5621 378.667 53.2872 387.25 34.799C395.833 16.3108 404.417 18.6091 413 20.1175C421.583 21.6259 430.167 22.3442 438.75 25.279C447.333 28.2137 455.917 33.3649 464.5 28.909C473.083 24.4531 481.667 10.3902 490.25 6.28569C498.833 2.1812 507.417 8.03516 516 21.9726C524.583 35.91 533.167 57.9309 541.75 75.1127C550.333 92.2945 558.917 104.637 567.5 96.702C576.083 88.7669 584.667 60.554 593.25 61.4897C601.833 62.4253 610.417 92.5094 614.708 107.552L619 122.594" stroke="#FFAA2B"/>
<path d="M1 64.3279L5.29167 67.3781C9.58333 70.4283 18.1667 76.5286 26.75 82.2862C35.3333 88.0437 43.9167 93.4585 52.5 93.282C61.0833 93.1056 69.6667 87.3379 78.25 79.1361C86.8333 70.9343 95.4167 60.2984 104 60.1503C112.583 60.0022 121.167 70.3421 129.75 70.4423C138.333 70.5426 146.917 60.4034 155.5 61.9338C164.083 63.4643 172.667 76.6646 181.25 86.9369C189.833 97.2092 198.417 104.554 207 109.508C215.583 114.462 224.167 117.026 232.75 106.958C241.333 96.8907 249.917 74.1913 258.5 61.9364C267.083 49.6815 275.667 47.8711 284.25 50.5564C292.833 53.2416 301.417 60.4223 310 53.209C318.583 45.9958 327.167 24.3884 335.75 26.5132C344.333 28.6381 352.917 54.4951 361.5 65.8515C370.083 77.2078 378.667 74.0636 387.25 68.3832C395.833 62.7028 404.417 54.4862 413 56.833C421.583 59.1798 430.167 72.09 438.75 79.9654C447.333 87.8408 455.917 90.6815 464.5 88.5901C473.083 86.4987 481.667 79.4753 490.25 75.3335C498.833 71.1916 507.417 69.9315 516 59.1152C524.583 48.2988 533.167 27.9264 541.75 24.2406C550.333 20.5547 558.917 33.5554 567.5 28.8948C576.083 24.2342 584.667 1.91218 593.25 5.36027C601.833 8.80836 610.417 38.0266 614.708 52.6356L619 67.2447" stroke="#8085FF"/>
</svg>
