<svg width="3379" height="601" viewBox="0 0 3379 601" fill="none" xmlns="http://www.w3.org/2000/svg">
<path fill-rule="evenodd" clip-rule="evenodd" d="M0.672363 300.507C0.672372 241.172 18.2669 183.17 51.2313 133.835C84.1958 84.5007 131.049 46.0491 185.867 23.3428C240.685 0.63653 301.005 -5.30441 359.199 6.27116C417.394 17.8467 470.849 46.4189 512.804 88.3746C554.76 130.33 583.332 183.785 594.908 241.979C606.483 300.174 600.542 360.494 577.836 415.311C555.13 470.129 516.678 516.983 467.343 549.947C418.009 582.912 360.007 600.507 300.672 600.507C261.276 600.507 222.265 592.747 185.867 577.671C149.469 562.594 116.397 540.496 88.5399 512.639C60.6823 484.781 38.5847 451.709 23.5083 415.312C8.43194 378.914 0.672273 339.903 0.672363 300.507ZM237.521 187.925L174.371 297.303H291.003V95.2906L237.521 187.925ZM310.34 95.2883V297.303H426.973L363.823 187.925L310.34 95.2883ZM522.116 316.641H79.2272L121.217 389.366H480.127L522.116 316.641ZM468.963 408.704H132.38L174.371 481.433H426.973L468.963 408.704Z" fill="#08C3A8"/>
<path d="M1075.17 163.774V437.281H1008.55V273.255L947.381 437.281H893.615L832.056 272.865V437.281H765.433V163.774H844.134L920.888 353.125L996.862 163.774H1075.17Z" fill="#172E59"/>
<path d="M1328.02 325.073C1328.02 331.307 1327.63 337.8 1326.85 344.554H1176.07C1177.11 358.06 1181.39 368.45 1188.93 375.722C1196.72 382.735 1206.2 386.242 1217.37 386.242C1233.99 386.242 1245.55 379.229 1252.04 365.203H1322.95C1319.32 379.489 1312.69 392.346 1303.08 403.774C1293.73 415.203 1281.91 424.164 1267.63 430.657C1253.34 437.151 1237.37 440.398 1219.71 440.398C1198.41 440.398 1179.45 435.852 1162.82 426.761C1146.2 417.67 1133.21 404.683 1123.86 387.8C1114.51 370.917 1109.84 351.177 1109.84 328.58C1109.84 305.982 1114.38 286.242 1123.47 269.359C1132.82 252.476 1145.81 239.489 1162.43 230.398C1179.06 221.307 1198.15 216.761 1219.71 216.761C1240.75 216.761 1259.45 221.177 1275.81 230.008C1292.17 238.839 1304.9 251.437 1313.99 267.8C1323.34 284.164 1328.02 303.255 1328.02 325.073ZM1259.84 307.541C1259.84 296.112 1255.94 287.021 1248.15 280.268C1240.36 273.515 1230.62 270.138 1218.93 270.138C1207.76 270.138 1198.28 273.385 1190.49 279.878C1182.95 286.372 1178.28 295.593 1176.46 307.541H1259.84Z" fill="#172E59"/>
<path d="M1495.63 217.541C1521.09 217.541 1541.35 225.852 1556.41 242.476C1571.74 258.839 1579.4 281.437 1579.4 310.268V437.281H1513.17V319.229C1513.17 304.683 1509.4 293.385 1501.87 285.333C1494.33 277.281 1484.2 273.255 1471.48 273.255C1458.75 273.255 1448.62 277.281 1441.09 285.333C1433.56 293.385 1429.79 304.683 1429.79 319.229V437.281H1363.17V219.878H1429.79V248.709C1436.54 239.099 1445.63 231.567 1457.06 226.112C1468.49 220.398 1481.35 217.541 1495.63 217.541Z" fill="#172E59"/>
<path d="M1746.86 380.787V437.281H1712.97C1688.81 437.281 1669.98 431.437 1656.48 419.748C1642.97 407.8 1636.22 388.45 1636.22 361.696V275.203H1609.72V219.878H1636.22V166.891H1702.84V219.878H1746.47V275.203H1702.84V362.476C1702.84 368.969 1704.4 373.645 1707.51 376.502C1710.63 379.359 1715.83 380.787 1723.1 380.787H1746.86Z" fill="#172E59"/>
<path d="M1886.35 440.398C1865.05 440.398 1845.83 435.852 1828.69 426.761C1811.8 417.67 1798.43 404.683 1788.56 387.8C1778.94 370.917 1774.14 351.177 1774.14 328.58C1774.14 306.242 1779.07 286.632 1788.94 269.748C1798.82 252.606 1812.32 239.489 1829.46 230.398C1846.61 221.307 1865.83 216.761 1887.13 216.761C1908.43 216.761 1927.65 221.307 1944.79 230.398C1961.93 239.489 1975.44 252.606 1985.31 269.748C1995.18 286.632 2000.11 306.242 2000.11 328.58C2000.11 350.917 1995.05 370.657 1984.92 387.8C1975.05 404.683 1961.41 417.67 1944.01 426.761C1926.87 435.852 1907.65 440.398 1886.35 440.398ZM1886.35 382.735C1899.07 382.735 1909.85 378.06 1918.69 368.709C1927.78 359.359 1932.32 345.982 1932.32 328.58C1932.32 311.177 1927.91 297.8 1919.07 288.45C1910.5 279.099 1899.85 274.424 1887.13 274.424C1874.14 274.424 1863.36 279.099 1854.79 288.45C1846.22 297.541 1841.93 310.917 1841.93 328.58C1841.93 345.982 1846.09 359.359 1854.4 368.709C1862.97 378.06 1873.62 382.735 1886.35 382.735Z" fill="#172E59"/>
<path d="M2104.64 256.112C2112.43 244.164 2122.17 234.813 2133.86 228.06C2145.55 221.047 2158.54 217.541 2172.82 217.541V288.06H2154.51C2137.89 288.06 2125.42 291.696 2117.11 298.969C2108.8 305.982 2104.64 318.45 2104.64 336.372V437.281H2038.02V219.878H2104.64V256.112Z" fill="#172E59"/>
<path d="M2206.65 301.307C2206.65 274.813 2212.62 251.047 2224.57 230.008C2236.52 208.709 2252.75 192.086 2273.27 180.138C2294.05 168.19 2317.04 162.216 2342.23 162.216C2371.84 162.216 2397.69 169.359 2419.76 183.644C2441.84 197.93 2457.94 218.19 2468.07 244.424H2425.61C2418.07 228.06 2407.17 215.463 2392.88 206.632C2378.85 197.8 2361.97 193.385 2342.23 193.385C2323.27 193.385 2306.26 197.8 2291.19 206.632C2276.13 215.463 2264.31 228.06 2255.74 244.424C2247.17 260.528 2242.88 279.489 2242.88 301.307C2242.88 322.865 2247.17 341.826 2255.74 358.19C2264.31 374.294 2276.13 386.761 2291.19 395.593C2306.26 404.424 2323.27 408.839 2342.23 408.839C2361.97 408.839 2378.85 404.554 2392.88 395.982C2407.17 387.151 2418.07 374.554 2425.61 358.19H2468.07C2457.94 384.164 2441.84 404.294 2419.76 418.58C2397.69 432.606 2371.84 439.619 2342.23 439.619C2317.04 439.619 2294.05 433.774 2273.27 422.086C2252.75 410.138 2236.52 393.644 2224.57 372.606C2212.62 351.567 2206.65 327.8 2206.65 301.307Z" fill="#172E59"/>
<path d="M2540.95 258.45C2547.19 246.242 2556.02 236.761 2567.45 230.008C2579.14 223.255 2593.29 219.878 2609.92 219.878V256.502H2600.56C2560.82 256.502 2540.95 278.06 2540.95 321.177V437.281H2505.5V223.774H2540.95V258.45Z" fill="#172E59"/>
<path d="M2835.08 223.774V437.281H2799.62V405.722C2792.87 416.631 2783.39 425.203 2771.18 431.437C2759.23 437.411 2745.99 440.398 2731.44 440.398C2714.82 440.398 2699.88 437.021 2686.63 430.268C2673.39 423.255 2662.87 412.865 2655.08 399.099C2647.54 385.333 2643.78 368.58 2643.78 348.839V223.774H2678.84V344.164C2678.84 365.203 2684.17 381.437 2694.82 392.865C2705.47 404.034 2720.01 409.619 2738.45 409.619C2757.41 409.619 2772.35 403.774 2783.26 392.086C2794.17 380.398 2799.62 363.385 2799.62 341.047V223.774H2835.08Z" fill="#172E59"/>
<path d="M2904.72 189.099C2897.97 189.099 2892.25 186.761 2887.58 182.086C2882.9 177.411 2880.57 171.696 2880.57 164.943C2880.57 158.19 2882.9 152.476 2887.58 147.8C2892.25 143.125 2897.97 140.787 2904.72 140.787C2911.22 140.787 2916.67 143.125 2921.09 147.8C2925.76 152.476 2928.1 158.19 2928.1 164.943C2928.1 171.696 2925.76 177.411 2921.09 182.086C2916.67 186.761 2911.22 189.099 2904.72 189.099ZM2921.86 223.774V437.281H2886.41V223.774H2921.86Z" fill="#172E59"/>
<path d="M3055.32 440.787C3038.95 440.787 3024.28 438.06 3011.29 432.606C2998.3 426.891 2988.04 419.099 2980.51 409.229C2972.98 399.099 2968.82 387.541 2968.04 374.554H3004.67C3005.71 385.203 3010.64 393.904 3019.47 400.657C3028.56 407.411 3040.38 410.787 3054.93 410.787C3068.43 410.787 3079.08 407.8 3086.87 401.826C3094.67 395.852 3098.56 388.32 3098.56 379.229C3098.56 369.878 3094.41 362.995 3086.1 358.58C3077.78 353.904 3064.93 349.359 3047.52 344.943C3031.68 340.787 3018.69 336.632 3008.56 332.476C2998.69 328.06 2990.12 321.696 2982.85 313.385C2975.84 304.813 2972.33 293.645 2972.33 279.878C2972.33 268.969 2975.58 258.969 2982.07 249.878C2988.56 240.787 2997.78 233.644 3009.73 228.45C3021.68 222.995 3035.32 220.268 3050.64 220.268C3074.28 220.268 3093.37 226.242 3107.91 238.19C3122.46 250.138 3130.25 266.502 3131.29 287.281H3095.84C3095.06 276.112 3090.51 267.151 3082.2 260.398C3074.15 253.645 3063.24 250.268 3049.47 250.268C3036.74 250.268 3026.62 252.995 3019.08 258.45C3011.55 263.904 3007.78 271.047 3007.78 279.878C3007.78 286.891 3009.99 292.735 3014.41 297.411C3019.08 301.826 3024.8 305.463 3031.55 308.32C3038.56 310.917 3048.17 313.904 3060.38 317.281C3075.71 321.437 3088.17 325.593 3097.78 329.748C3107.39 333.644 3115.58 339.619 3122.33 347.67C3129.34 355.722 3132.98 366.242 3133.24 379.229C3133.24 390.917 3129.99 401.437 3123.5 410.787C3117 420.138 3107.78 427.541 3095.84 432.995C3084.15 438.19 3070.64 440.787 3055.32 440.787Z" fill="#172E59"/>
<path d="M3378.09 322.346C3378.09 329.099 3377.7 336.242 3376.92 343.774H3206.28C3207.57 364.813 3214.72 381.307 3227.7 393.255C3240.95 404.943 3256.92 410.787 3275.63 410.787C3290.95 410.787 3303.68 407.281 3313.81 400.268C3324.2 392.995 3331.47 383.385 3335.63 371.437H3373.81C3368.09 391.956 3356.67 408.709 3339.52 421.696C3322.38 434.424 3301.08 440.787 3275.63 440.787C3255.37 440.787 3237.18 436.242 3221.08 427.151C3205.24 418.06 3192.77 405.203 3183.68 388.58C3174.59 371.696 3170.04 352.216 3170.04 330.138C3170.04 308.06 3174.46 288.709 3183.29 272.086C3192.12 255.463 3204.46 242.735 3220.3 233.904C3236.41 224.813 3254.85 220.268 3275.63 220.268C3295.89 220.268 3313.81 224.683 3329.39 233.515C3344.98 242.346 3356.92 254.554 3365.24 270.138C3373.81 285.463 3378.09 302.865 3378.09 322.346ZM3341.47 314.943C3341.47 301.437 3338.48 289.878 3332.51 280.268C3326.54 270.398 3318.35 262.995 3307.96 258.06C3297.83 252.865 3286.53 250.268 3274.07 250.268C3256.15 250.268 3240.82 255.982 3228.09 267.411C3215.63 278.839 3208.48 294.683 3206.66 314.943H3341.47Z" fill="#172E59"/>
</svg>
